<svg width="114" height="25" viewBox="0 0 114 25" fill="none" xmlns="http://www.w3.org/2000/svg">
<path d="M0.72 21L5.86 6.1H9.38L14.52 21H11.56L10.5 17.8H4.74L3.66 21H0.72ZM5.52 15.4H9.72L7.24 7.98H8L5.52 15.4ZM15.9583 21V10.12H18.5783V21H15.9583ZM15.9583 8.9V6.1H18.5783V8.9H15.9583ZM26.0573 21.24C25.004 21.24 24.064 20.9933 23.2373 20.5C22.4107 19.9933 21.7573 19.3067 21.2773 18.44C20.7973 17.5733 20.5573 16.6133 20.5573 15.56C20.5573 14.4933 20.7973 13.5333 21.2773 12.68C21.7573 11.8267 22.4107 11.1467 23.2373 10.64C24.0773 10.1333 25.0107 9.88 26.0373 9.88C26.864 9.88 27.5973 10.0467 28.2373 10.38C28.8907 10.7 29.404 11.1533 29.7773 11.74L29.3773 12.28V5.86H31.9973V21H29.5173V18.9L29.7973 19.42C29.424 20.0067 28.904 20.46 28.2373 20.78C27.5707 21.0867 26.844 21.24 26.0573 21.24ZM26.3373 18.84C26.9373 18.84 27.464 18.7 27.9173 18.42C28.3707 18.14 28.724 17.7533 28.9773 17.26C29.244 16.7667 29.3773 16.2 29.3773 15.56C29.3773 14.9333 29.244 14.3733 28.9773 13.88C28.724 13.3733 28.3707 12.98 27.9173 12.7C27.464 12.42 26.9373 12.28 26.3373 12.28C25.7507 12.28 25.224 12.4267 24.7573 12.72C24.2907 13 23.924 13.3867 23.6573 13.88C23.404 14.36 23.2773 14.92 23.2773 15.56C23.2773 16.2 23.404 16.7667 23.6573 17.26C23.924 17.7533 24.2907 18.14 24.7573 18.42C25.224 18.7 25.7507 18.84 26.3373 18.84ZM37.7348 21.24C36.9748 21.24 36.3148 21.1133 35.7548 20.86C35.1948 20.6067 34.7615 20.2467 34.4548 19.78C34.1482 19.3 33.9948 18.7467 33.9948 18.12C33.9948 17.52 34.1282 16.9867 34.3948 16.52C34.6615 16.04 35.0748 15.64 35.6348 15.32C36.1948 15 36.9015 14.7733 37.7548 14.64L41.3148 14.06V16.06L38.2548 16.58C37.7348 16.6733 37.3482 16.84 37.0948 17.08C36.8415 17.32 36.7148 17.6333 36.7148 18.02C36.7148 18.3933 36.8548 18.6933 37.1348 18.92C37.4282 19.1333 37.7882 19.24 38.2148 19.24C38.7615 19.24 39.2415 19.1267 39.6548 18.9C40.0815 18.66 40.4082 18.3333 40.6348 17.92C40.8748 17.5067 40.9948 17.0533 40.9948 16.56V13.76C40.9948 13.2933 40.8082 12.9067 40.4348 12.6C40.0748 12.28 39.5948 12.12 38.9948 12.12C38.4348 12.12 37.9348 12.2733 37.4948 12.58C37.0682 12.8733 36.7548 13.2667 36.5548 13.76L34.4148 12.72C34.6282 12.1467 34.9615 11.6533 35.4148 11.24C35.8815 10.8133 36.4282 10.48 37.0548 10.24C37.6815 10 38.3615 9.88 39.0948 9.88C39.9882 9.88 40.7748 10.0467 41.4548 10.38C42.1348 10.7 42.6615 11.1533 43.0348 11.74C43.4215 12.3133 43.6148 12.9867 43.6148 13.76V21H41.1348V19.14L41.6948 19.1C41.4148 19.5667 41.0815 19.96 40.6948 20.28C40.3082 20.5867 39.8682 20.8267 39.3748 21C38.8815 21.16 38.3348 21.24 37.7348 21.24Z" fill="#FFD166"/>
<rect x="55.5" y="1" width="58" height="23" rx="11.5" fill="#FFD166" fill-opacity="0.1"/>
<path d="M71.22 17V9.55H74.36C74.8533 9.55 75.2733 9.63667 75.62 9.81C75.9733 9.97667 76.2433 10.2167 76.43 10.53C76.6233 10.8367 76.72 11.21 76.72 11.65C76.72 11.99 76.6267 12.31 76.44 12.61C76.26 12.9033 75.97 13.1467 75.57 13.34V12.71C75.9367 12.85 76.2267 13.0233 76.44 13.23C76.6533 13.4367 76.8033 13.6667 76.89 13.92C76.9767 14.1733 77.02 14.44 77.02 14.72C77.02 15.4333 76.7833 15.9933 76.31 16.4C75.8433 16.8 75.1933 17 74.36 17H71.22ZM72.58 15.8H74.5C74.8533 15.8 75.1333 15.7033 75.34 15.51C75.5533 15.31 75.66 15.0467 75.66 14.72C75.66 14.3933 75.5533 14.13 75.34 13.93C75.1333 13.73 74.8533 13.63 74.5 13.63H72.58V15.8ZM72.58 12.44H74.43C74.71 12.44 74.9333 12.36 75.1 12.2C75.2667 12.0333 75.35 11.82 75.35 11.56C75.35 11.3 75.2667 11.0933 75.1 10.94C74.9333 10.7867 74.71 10.71 74.43 10.71H72.58V12.44ZM79.1341 17V9.55H84.0841V10.75H80.4941V12.66H83.8841V13.86H80.4941V15.8H84.0841V17H79.1341ZM87.4013 17V10.75H85.4713V9.55H90.6713V10.75H88.7713V17H87.4013ZM91.3932 17L93.9632 9.55H95.7232L98.2932 17H96.8132L96.2832 15.4H93.4032L92.8632 17H91.3932ZM93.7932 14.2H95.8932L94.6532 10.49H95.0332L93.7932 14.2Z" fill="#FFD166"/>
</svg>
